<?xml version="1.0" encoding="UTF-8"?>
<svg width="512" height="512" viewBox="0 0 512 512" xmlns="http://www.w3.org/2000/svg">
  <!-- 背景 -->
  <rect width="512" height="512" rx="64" fill="url(#bgGrad)"/>
  <defs>
    <linearGradient id="bgGrad" x1="0" y1="0" x2="1" y2="1">
      <stop offset="0%" stop-color="#1e40af"/>
      <stop offset="100%" stop-color="#3b82f6"/>
    </linearGradient>
    <linearGradient id="arrowGrad" x1="0" y1="0" x2="0" y2="1">
      <stop offset="0%" stop-color="#60a5fa"/>
      <stop offset="100%" stop-color="#93c5fd"/>
    </linearGradient>
  </defs>

  <!-- グリッド -->
  <g stroke="rgba(255,255,255,0.2)" stroke-width="2">
    <line x1="96" y1="160" x2="416" y2="160"/>
    <line x1="96" y1="256" x2="416" y2="256"/>
    <line x1="96" y1="352" x2="416" y2="352"/>
    <line x1="160" y1="96" x2="160" y2="416"/>
    <line x1="256" y1="96" x2="256" y2="416"/>
    <line x1="352" y1="96" x2="352" y2="416"/>
  </g>

  <!-- チャート軸 -->
  <line x1="96" y1="96" x2="96" y2="416" stroke="#ffffff" stroke-width="6" stroke-linecap="round"/>
  <line x1="96" y1="416" x2="416" y2="416" stroke="#ffffff" stroke-width="6" stroke-linecap="round"/>

  <!-- 上昇矢印 -->
  <polyline points="128,352 224,256 288,320 384,192" fill="none" stroke="url(#arrowGrad)" stroke-width="12" stroke-linecap="round" stroke-linejoin="round"/>
  <polygon points="384,192 368,208 400,208" fill="url(#arrowGrad)"/>

  <!-- データポイント -->
  <circle cx="128" cy="352" r="10" fill="#ffffff"/>
  <circle cx="224" cy="256" r="10" fill="#ffffff"/>
  <circle cx="288" cy="320" r="10" fill="#ffffff"/>
  <circle cx="384" cy="192" r="10" fill="#ffffff"/>
</svg>
